<svg width="216" height="35" viewBox="0 0 216 35" fill="none" xmlns="http://www.w3.org/2000/svg">
<mask id="mask0_188_93" style="mask-type:alpha" maskUnits="userSpaceOnUse" x="0" y="1" width="32" height="32">
<rect y="1" width="32" height="32" fill="#D9D9D9"/>
</mask>
<g mask="url(#mask0_188_93)">
<path d="M5.55933 29.6407C4.57489 29.6407 3.73989 29.2979 3.05433 28.6124C2.36878 27.9268 2.026 27.0918 2.026 26.1074V12.1944C2.026 11.2097 2.36878 10.3746 3.05433 9.68903C3.73989 9.00369 4.57489 8.66103 5.55933 8.66103H10.0827V5.99436C10.0827 5.00969 10.4254 4.17458 11.111 3.48903C11.7963 2.80347 12.6313 2.46069 13.616 2.46069H18.384C19.3687 2.46069 20.2037 2.80347 20.889 3.48903C21.5746 4.17458 21.9173 5.00969 21.9173 5.99436V8.66103H26.4407C27.4251 8.66103 28.2601 9.00369 28.9457 9.68903C29.6312 10.3746 29.974 11.2097 29.974 12.1944V26.1074C29.974 27.0918 29.6312 27.9268 28.9457 28.6124C28.2601 29.2979 27.4251 29.6407 26.4407 29.6407H5.55933ZM5.55933 26.1074H26.4407V12.1944H5.55933V26.1074ZM13.616 8.66103H18.384V5.99436H13.616V8.66103Z" fill="white"/>
</g>
<path d="M36.5039 8.63281V8.53906H37.8633V8.62695C37.8633 9.11133 38.0293 9.47461 38.3613 9.7168C38.6973 9.95898 39.1641 10.0801 39.7617 10.0801C40.3594 10.0801 40.8164 9.95898 41.1328 9.7168C41.4531 9.4707 41.6133 9.15039 41.6133 8.75586C41.6133 8.38477 41.4629 8.0918 41.1621 7.87695C40.8652 7.66211 40.2578 7.43359 39.3398 7.19141C38.3906 6.9375 37.709 6.625 37.2949 6.25391C36.8809 5.87891 36.6719 5.35156 36.668 4.67188C36.668 3.98047 36.9375 3.41211 37.4766 2.9668C38.0195 2.51758 38.7617 2.29297 39.7031 2.29297C40.6445 2.29297 41.3945 2.53125 41.9531 3.00781C42.5156 3.48047 42.7969 4.07812 42.7969 4.80078V4.89453H41.4492V4.80664C41.4492 4.38086 41.3027 4.03906 41.0098 3.78125C40.7168 3.52344 40.2812 3.39453 39.7031 3.39453C39.1289 3.39453 38.7051 3.50391 38.4316 3.72266C38.1582 3.9375 38.0215 4.22461 38.0215 4.58398C38.0215 4.93945 38.1602 5.21484 38.4375 5.41016C38.7188 5.60547 39.3008 5.82227 40.1836 6.06055C41.125 6.30664 41.8223 6.62891 42.2754 7.02734C42.7324 7.42578 42.9609 7.98828 42.9609 8.71484C42.9609 9.44922 42.6719 10.043 42.0938 10.4961C41.5195 10.9492 40.7422 11.1758 39.7617 11.1758C38.7852 11.1758 37.998 10.9512 37.4004 10.502C36.8027 10.0488 36.5039 9.42578 36.5039 8.63281ZM44.4082 11V2.46875H45.7617V11H44.4082ZM47.2617 8.63281V8.53906H48.6211V8.62695C48.6211 9.11133 48.7871 9.47461 49.1191 9.7168C49.4551 9.95898 49.9219 10.0801 50.5195 10.0801C51.1172 10.0801 51.5742 9.95898 51.8906 9.7168C52.2109 9.4707 52.3711 9.15039 52.3711 8.75586C52.3711 8.38477 52.2207 8.0918 51.9199 7.87695C51.623 7.66211 51.0156 7.43359 50.0977 7.19141C49.1484 6.9375 48.4668 6.625 48.0527 6.25391C47.6387 5.87891 47.4297 5.35156 47.4258 4.67188C47.4258 3.98047 47.6953 3.41211 48.2344 2.9668C48.7773 2.51758 49.5195 2.29297 50.4609 2.29297C51.4023 2.29297 52.1523 2.53125 52.7109 3.00781C53.2734 3.48047 53.5547 4.07812 53.5547 4.80078V4.89453H52.207V4.80664C52.207 4.38086 52.0605 4.03906 51.7676 3.78125C51.4746 3.52344 51.0391 3.39453 50.4609 3.39453C49.8867 3.39453 49.4629 3.50391 49.1895 3.72266C48.916 3.9375 48.7793 4.22461 48.7793 4.58398C48.7793 4.93945 48.918 5.21484 49.1953 5.41016C49.4766 5.60547 50.0586 5.82227 50.9414 6.06055C51.8828 6.30664 52.5801 6.62891 53.0332 7.02734C53.4902 7.42578 53.7188 7.98828 53.7188 8.71484C53.7188 9.44922 53.4297 10.043 52.8516 10.4961C52.2773 10.9492 51.5 11.1758 50.5195 11.1758C49.543 11.1758 48.7559 10.9512 48.1582 10.502C47.5605 10.0488 47.2617 9.42578 47.2617 8.63281ZM54.3164 3.54102V2.46875H61.1367V3.54102H58.4004V11H57.0527V3.54102H54.3164ZM62.2559 11V2.46875H67.8457V3.54102H63.5977V6.06641H67.3008V7.13867H63.5977V9.93359H67.9043V11H62.2559ZM69.2871 11V2.46875H71.0391L73.4121 8.54492C73.459 8.66992 73.502 8.79492 73.541 8.91992C73.584 9.04492 73.623 9.16992 73.6582 9.29492H73.7051C73.7363 9.16992 73.7715 9.04492 73.8105 8.91992C73.8535 8.79102 73.8984 8.66602 73.9453 8.54492L76.3008 2.46875H78.0879V11H76.7695V5.0293C76.7695 4.9082 76.7715 4.77344 76.7754 4.625C76.7793 4.47266 76.7891 4.33594 76.8047 4.21484H76.752C76.7246 4.33594 76.6875 4.47266 76.6406 4.625C76.5938 4.77344 76.5469 4.9082 76.5 5.0293L74.1914 11H73.0547L70.7285 5.0293C70.6816 4.9082 70.6348 4.77344 70.5879 4.625C70.5449 4.47266 70.5137 4.33594 70.4941 4.21484H70.4355C70.4512 4.33594 70.4609 4.47266 70.4648 4.625C70.4727 4.77344 70.4766 4.9082 70.4766 5.0293V11H69.2871ZM82.9863 11V2.46875H84.3398V11H82.9863ZM86.3145 11V2.46875H87.7441L91.418 8.25195C91.4922 8.36914 91.5625 8.49023 91.6289 8.61523C91.6953 8.74023 91.752 8.85547 91.7988 8.96094H91.8457C91.8418 8.83984 91.8379 8.69922 91.834 8.53906C91.8301 8.37891 91.8281 8.23828 91.8281 8.11719V2.46875H93.0762V11H91.6348L87.9551 5.2168C87.8809 5.09961 87.8125 4.98438 87.75 4.87109C87.6875 4.75391 87.6328 4.64258 87.5859 4.53711H87.5391C87.543 4.6582 87.5469 4.79102 87.5508 4.93555C87.5547 5.07617 87.5566 5.20898 87.5566 5.33398V11H86.3145ZM95.0332 11V2.46875H100.547V3.54102H96.3809V6.2832H99.9844V7.34961H96.3809V11H95.0332ZM101.537 6.99219V6.47656C101.537 5.14844 101.887 4.11914 102.586 3.38867C103.289 2.6582 104.189 2.29297 105.287 2.29297C106.385 2.29297 107.283 2.6582 107.982 3.38867C108.686 4.11914 109.037 5.14844 109.037 6.47656V6.99219C109.037 8.32031 108.686 9.34961 107.982 10.0801C107.283 10.8105 106.385 11.1758 105.287 11.1758C104.189 11.1758 103.289 10.8105 102.586 10.0801C101.887 9.34961 101.537 8.32031 101.537 6.99219ZM102.908 7.02734C102.908 7.99219 103.125 8.74219 103.559 9.27734C103.992 9.80859 104.568 10.0742 105.287 10.0742C106.006 10.0742 106.582 9.80859 107.016 9.27734C107.449 8.74219 107.666 7.99219 107.666 7.02734V6.44141C107.666 5.47656 107.449 4.72852 107.016 4.19727C106.582 3.66602 106.006 3.40039 105.287 3.40039C104.568 3.40039 103.992 3.66602 103.559 4.19727C103.125 4.72852 102.908 5.47656 102.908 6.44141V7.02734ZM110.678 11V2.46875H113.613C114.574 2.46875 115.316 2.70117 115.84 3.16602C116.367 3.63086 116.631 4.25586 116.631 5.04102C116.631 5.83008 116.367 6.46289 115.84 6.93945C115.316 7.41211 114.574 7.64844 113.613 7.64844H112.025V11H110.678ZM112.025 6.59375H113.602C114.227 6.59375 114.662 6.44531 114.908 6.14844C115.158 5.85156 115.283 5.48242 115.283 5.04102C115.283 4.60352 115.158 4.24219 114.908 3.95703C114.662 3.66797 114.227 3.52344 113.602 3.52344H112.025V6.59375ZM115.541 11L113.461 7.0625L114.844 6.92188L117.059 11H115.541ZM118.248 11V2.46875H120L122.373 8.54492C122.42 8.66992 122.463 8.79492 122.502 8.91992C122.545 9.04492 122.584 9.16992 122.619 9.29492H122.666C122.697 9.16992 122.732 9.04492 122.771 8.91992C122.814 8.79102 122.859 8.66602 122.906 8.54492L125.262 2.46875H127.049V11H125.73V5.0293C125.73 4.9082 125.732 4.77344 125.736 4.625C125.74 4.47266 125.75 4.33594 125.766 4.21484H125.713C125.686 4.33594 125.648 4.47266 125.602 4.625C125.555 4.77344 125.508 4.9082 125.461 5.0293L123.152 11H122.016L119.689 5.0293C119.643 4.9082 119.596 4.77344 119.549 4.625C119.506 4.47266 119.475 4.33594 119.455 4.21484H119.396C119.412 4.33594 119.422 4.47266 119.426 4.625C119.434 4.77344 119.438 4.9082 119.438 5.0293V11H118.248ZM128.051 11L131.303 2.41602H132.621L135.891 11H134.467L132.17 4.70117C132.119 4.56445 132.076 4.43359 132.041 4.30859C132.006 4.18359 131.973 4.05664 131.941 3.92773H131.889C131.861 4.05664 131.828 4.18359 131.789 4.30859C131.754 4.43359 131.713 4.56445 131.666 4.70117L129.352 11H128.051ZM129.557 8.88477L129.938 7.81836L133.945 7.82422L134.32 8.89062L129.557 8.88477ZM136.359 8.63281V8.53906H137.719V8.62695C137.719 9.11133 137.885 9.47461 138.217 9.7168C138.553 9.95898 139.02 10.0801 139.617 10.0801C140.215 10.0801 140.672 9.95898 140.988 9.7168C141.309 9.4707 141.469 9.15039 141.469 8.75586C141.469 8.38477 141.318 8.0918 141.018 7.87695C140.721 7.66211 140.113 7.43359 139.195 7.19141C138.246 6.9375 137.564 6.625 137.15 6.25391C136.736 5.87891 136.527 5.35156 136.523 4.67188C136.523 3.98047 136.793 3.41211 137.332 2.9668C137.875 2.51758 138.617 2.29297 139.559 2.29297C140.5 2.29297 141.25 2.53125 141.809 3.00781C142.371 3.48047 142.652 4.07812 142.652 4.80078V4.89453H141.305V4.80664C141.305 4.38086 141.158 4.03906 140.865 3.78125C140.572 3.52344 140.137 3.39453 139.559 3.39453C138.984 3.39453 138.561 3.50391 138.287 3.72266C138.014 3.9375 137.877 4.22461 137.877 4.58398C137.877 4.93945 138.016 5.21484 138.293 5.41016C138.574 5.60547 139.156 5.82227 140.039 6.06055C140.98 6.30664 141.678 6.62891 142.131 7.02734C142.588 7.42578 142.816 7.98828 142.816 8.71484C142.816 9.44922 142.527 10.043 141.949 10.4961C141.375 10.9492 140.598 11.1758 139.617 11.1758C138.641 11.1758 137.854 10.9512 137.256 10.502C136.658 10.0488 136.359 9.42578 136.359 8.63281ZM144.264 11V2.46875H145.617V11H144.264ZM150.193 6.99219V6.47656C150.193 5.14844 150.543 4.11914 151.242 3.38867C151.941 2.6582 152.84 2.29297 153.938 2.29297C154.969 2.29297 155.773 2.55273 156.352 3.07227C156.93 3.5918 157.244 4.21484 157.295 4.94141L157.301 5.00586H155.947L155.941 4.94727C155.93 4.56836 155.754 4.21484 155.414 3.88672C155.074 3.55859 154.576 3.39453 153.92 3.39453C153.217 3.39453 152.648 3.66211 152.215 4.19727C151.781 4.72852 151.564 5.47461 151.564 6.43555V7.0332C151.564 7.99805 151.783 8.74609 152.221 9.27734C152.662 9.80859 153.279 10.0742 154.072 10.0742C154.482 10.0742 154.836 10.0332 155.133 9.95117C155.43 9.86523 155.713 9.73047 155.982 9.54688V7.71875H153.955V6.6582H157.301V10.0215C157.02 10.3066 156.605 10.5703 156.059 10.8125C155.512 11.0547 154.85 11.1758 154.072 11.1758C152.885 11.1758 151.941 10.8105 151.242 10.0801C150.543 9.34961 150.193 8.32031 150.193 6.99219ZM158.9 11V2.46875H164.49V3.54102H160.242V6.06641H163.945V7.13867H160.242V9.93359H164.549V11H158.9ZM165.604 6.99219V6.47656C165.604 5.14844 165.953 4.11914 166.652 3.38867C167.355 2.6582 168.256 2.29297 169.354 2.29297C170.451 2.29297 171.35 2.6582 172.049 3.38867C172.752 4.11914 173.104 5.14844 173.104 6.47656V6.99219C173.104 8.32031 172.752 9.34961 172.049 10.0801C171.35 10.8105 170.451 11.1758 169.354 11.1758C168.256 11.1758 167.355 10.8105 166.652 10.0801C165.953 9.34961 165.604 8.32031 165.604 6.99219ZM166.975 7.02734C166.975 7.99219 167.191 8.74219 167.625 9.27734C168.059 9.80859 168.635 10.0742 169.354 10.0742C170.072 10.0742 170.648 9.80859 171.082 9.27734C171.516 8.74219 171.732 7.99219 171.732 7.02734V6.44141C171.732 5.47656 171.516 4.72852 171.082 4.19727C170.648 3.66602 170.072 3.40039 169.354 3.40039C168.635 3.40039 168.059 3.66602 167.625 4.19727C167.191 4.72852 166.975 5.47656 166.975 6.44141V7.02734ZM174.416 6.99219V6.47656C174.416 5.14844 174.766 4.11914 175.465 3.38867C176.164 2.6582 177.062 2.29297 178.16 2.29297C179.191 2.29297 179.996 2.55273 180.574 3.07227C181.152 3.5918 181.467 4.21484 181.518 4.94141L181.523 5.00586H180.17L180.164 4.94727C180.152 4.56836 179.977 4.21484 179.637 3.88672C179.297 3.55859 178.799 3.39453 178.143 3.39453C177.439 3.39453 176.871 3.66211 176.438 4.19727C176.004 4.72852 175.787 5.47461 175.787 6.43555V7.0332C175.787 7.99805 176.006 8.74609 176.443 9.27734C176.885 9.80859 177.502 10.0742 178.295 10.0742C178.705 10.0742 179.059 10.0332 179.355 9.95117C179.652 9.86523 179.936 9.73047 180.205 9.54688V7.71875H178.178V6.6582H181.523V10.0215C181.242 10.3066 180.828 10.5703 180.281 10.8125C179.734 11.0547 179.072 11.1758 178.295 11.1758C177.107 11.1758 176.164 10.8105 175.465 10.0801C174.766 9.34961 174.416 8.32031 174.416 6.99219ZM183.123 11V2.46875H186.059C187.02 2.46875 187.762 2.70117 188.285 3.16602C188.812 3.63086 189.076 4.25586 189.076 5.04102C189.076 5.83008 188.812 6.46289 188.285 6.93945C187.762 7.41211 187.02 7.64844 186.059 7.64844H184.471V11H183.123ZM184.471 6.59375H186.047C186.672 6.59375 187.107 6.44531 187.354 6.14844C187.604 5.85156 187.729 5.48242 187.729 5.04102C187.729 4.60352 187.604 4.24219 187.354 3.95703C187.107 3.66797 186.672 3.52344 186.047 3.52344H184.471V6.59375ZM187.986 11L185.906 7.0625L187.289 6.92188L189.504 11H187.986ZM189.68 11L192.932 2.41602H194.25L197.52 11H196.096L193.799 4.70117C193.748 4.56445 193.705 4.43359 193.67 4.30859C193.635 4.18359 193.602 4.05664 193.57 3.92773H193.518C193.49 4.05664 193.457 4.18359 193.418 4.30859C193.383 4.43359 193.342 4.56445 193.295 4.70117L190.98 11H189.68ZM191.186 8.88477L191.566 7.81836L195.574 7.82422L195.949 8.89062L191.186 8.88477ZM198.463 11V2.46875H203.977V3.54102H199.811V6.2832H203.414V7.34961H199.811V11H198.463ZM205.307 11V2.46875H206.66V11H205.307ZM208.16 8.63281V8.53906H209.52V8.62695C209.52 9.11133 209.686 9.47461 210.018 9.7168C210.354 9.95898 210.82 10.0801 211.418 10.0801C212.016 10.0801 212.473 9.95898 212.789 9.7168C213.109 9.4707 213.27 9.15039 213.27 8.75586C213.27 8.38477 213.119 8.0918 212.818 7.87695C212.521 7.66211 211.914 7.43359 210.996 7.19141C210.047 6.9375 209.365 6.625 208.951 6.25391C208.537 5.87891 208.328 5.35156 208.324 4.67188C208.324 3.98047 208.594 3.41211 209.133 2.9668C209.676 2.51758 210.418 2.29297 211.359 2.29297C212.301 2.29297 213.051 2.53125 213.609 3.00781C214.172 3.48047 214.453 4.07812 214.453 4.80078V4.89453H213.105V4.80664C213.105 4.38086 212.959 4.03906 212.666 3.78125C212.373 3.52344 211.938 3.39453 211.359 3.39453C210.785 3.39453 210.361 3.50391 210.088 3.72266C209.814 3.9375 209.678 4.22461 209.678 4.58398C209.678 4.93945 209.816 5.21484 210.094 5.41016C210.375 5.60547 210.957 5.82227 211.84 6.06055C212.781 6.30664 213.479 6.62891 213.932 7.02734C214.389 7.42578 214.617 7.98828 214.617 8.71484C214.617 9.44922 214.328 10.043 213.75 10.4961C213.176 10.9492 212.398 11.1758 211.418 11.1758C210.441 11.1758 209.654 10.9512 209.057 10.502C208.459 10.0488 208.16 9.42578 208.16 8.63281ZM37.1406 30V18.625H39.8672V27.9531H44.6797V30H37.1406ZM46.2844 24.6641V23.9609C46.2844 22.1224 46.7661 20.737 47.7297 19.8047C48.6932 18.8672 49.938 18.3984 51.4641 18.3984C52.9849 18.3984 54.2323 18.8672 55.2063 19.8047C56.1802 20.737 56.6672 22.1224 56.6672 23.9609V24.6641C56.6672 26.5026 56.1802 27.8906 55.2063 28.8281C54.2323 29.7604 52.9849 30.2266 51.4641 30.2266C49.938 30.2266 48.6932 29.7604 47.7297 28.8281C46.7661 27.8906 46.2844 26.5026 46.2844 24.6641ZM49.0891 24.9922C49.0891 26.1068 49.3026 26.9193 49.7297 27.4297C50.1568 27.9349 50.7349 28.1875 51.4641 28.1875C52.1932 28.1875 52.7766 27.9349 53.2141 27.4297C53.6516 26.9193 53.8703 26.1068 53.8703 24.9922V23.6406C53.8703 22.5208 53.6516 21.7083 53.2141 21.2031C52.7766 20.6979 52.1932 20.4453 51.4641 20.4453C50.7349 20.4453 50.1568 20.6979 49.7297 21.2031C49.3026 21.7083 49.0891 22.5208 49.0891 23.6406V24.9922ZM60.9984 30.0234L58.35 18.625H61.0375L62.6234 25.9844C62.6599 26.1615 62.6859 26.3021 62.7016 26.4062C62.7172 26.5104 62.7328 26.651 62.7484 26.8281H62.8188C62.8344 26.651 62.8474 26.5104 62.8578 26.4062C62.8734 26.3021 62.8995 26.1615 62.9359 25.9844L64.6859 18.625H67.725L69.4828 25.9688C69.5245 26.1458 69.5505 26.2891 69.5609 26.3984C69.5766 26.5078 69.5922 26.651 69.6078 26.8281H69.6703C69.6911 26.651 69.7094 26.5078 69.725 26.3984C69.7406 26.2891 69.7641 26.1458 69.7953 25.9688L71.3266 18.625H73.6625L71.0844 30.0234H68.0063L66.1781 22.6719C66.1365 22.4948 66.1026 22.3385 66.0766 22.2031C66.0557 22.0625 66.0375 21.9036 66.0219 21.7266H65.9672C65.9516 21.9036 65.9333 22.0625 65.9125 22.2031C65.8917 22.3385 65.8604 22.4948 65.8188 22.6719L63.9906 30.0234H60.9984ZM75.3375 24.6641V23.9609C75.3375 22.1224 75.8193 20.737 76.7828 19.8047C77.7464 18.8672 78.9911 18.3984 80.5172 18.3984C82.038 18.3984 83.2854 18.8672 84.2594 19.8047C85.2333 20.737 85.7203 22.1224 85.7203 23.9609V24.6641C85.7203 26.5026 85.2333 27.8906 84.2594 28.8281C83.2854 29.7604 82.038 30.2266 80.5172 30.2266C78.9911 30.2266 77.7464 29.7604 76.7828 28.8281C75.8193 27.8906 75.3375 26.5026 75.3375 24.6641ZM78.1422 24.9922C78.1422 26.1068 78.3557 26.9193 78.7828 27.4297C79.2099 27.9349 79.788 28.1875 80.5172 28.1875C81.2464 28.1875 81.8297 27.9349 82.2672 27.4297C82.7047 26.9193 82.9234 26.1068 82.9234 24.9922V23.6406C82.9234 22.5208 82.7047 21.7083 82.2672 21.2031C81.8297 20.6979 81.2464 20.4453 80.5172 20.4453C79.788 20.4453 79.2099 20.6979 78.7828 21.2031C78.3557 21.7083 78.1422 22.5208 78.1422 23.6406V24.9922ZM88.3875 30V18.625H91.2938L94.9578 25.3125C95.0411 25.474 95.1115 25.6224 95.1688 25.7578C95.2313 25.8932 95.2885 26.0443 95.3406 26.2109H95.4031C95.3927 26.0339 95.3849 25.8724 95.3797 25.7266C95.3797 25.5807 95.3797 25.4167 95.3797 25.2344V18.625H97.6844V30H94.7156L91.0984 23.3906C91.0151 23.2292 90.9448 23.0755 90.8875 22.9297C90.8302 22.7839 90.7755 22.625 90.7234 22.4531H90.6688C90.6792 22.6354 90.6844 22.8125 90.6844 22.9844C90.6896 23.1562 90.6922 23.3333 90.6922 23.5156V30H88.3875ZM100.359 24.6641V23.9609C100.359 22.1224 100.836 20.737 101.789 19.8047C102.742 18.8672 104.008 18.3984 105.586 18.3984C107.023 18.3984 108.159 18.7422 108.992 19.4297C109.831 20.1172 110.242 20.9948 110.227 22.0625V22.1953H107.492V22.0938C107.492 21.6146 107.326 21.2214 106.992 20.9141C106.659 20.6016 106.151 20.4453 105.469 20.4453C104.771 20.4453 104.211 20.7005 103.789 21.2109C103.372 21.7161 103.164 22.513 103.164 23.6016V25.0312C103.164 26.151 103.396 26.9609 103.859 27.4609C104.328 27.9557 104.958 28.2031 105.75 28.2031C106.141 28.2031 106.471 28.1615 106.742 28.0781C107.018 27.9948 107.289 27.8594 107.555 27.6719V25.8672H105.594V23.8984H110.234V28.5703C109.828 28.9818 109.253 29.362 108.508 29.7109C107.763 30.0547 106.841 30.2266 105.742 30.2266C104.06 30.2266 102.742 29.7604 101.789 28.8281C100.836 27.8906 100.359 26.5026 100.359 24.6641ZM111.394 30L115.683 18.5781H118.628L123.011 30H120.073L117.253 22.1797C117.191 22.0026 117.141 21.8333 117.105 21.6719C117.068 21.5104 117.037 21.3516 117.011 21.1953H116.948C116.922 21.3516 116.891 21.513 116.855 21.6797C116.818 21.8411 116.769 22.0078 116.706 22.1797L113.909 30H111.394ZM114.027 27.6641L114.605 25.6953H119.542L120.128 27.6641H114.027ZM124.678 30V18.625H127.584L131.248 25.3125C131.332 25.474 131.402 25.6224 131.459 25.7578C131.522 25.8932 131.579 26.0443 131.631 26.2109H131.694C131.683 26.0339 131.676 25.8724 131.67 25.7266C131.67 25.5807 131.67 25.4167 131.67 25.2344V18.625H133.975V30H131.006L127.389 23.3906C127.306 23.2292 127.235 23.0755 127.178 22.9297C127.121 22.7839 127.066 22.625 127.014 22.4531H126.959C126.97 22.6354 126.975 22.8125 126.975 22.9844C126.98 23.1562 126.983 23.3333 126.983 23.5156V30H124.678ZM141.794 30V18.625H145.294L147.762 25.5312C147.825 25.7188 147.877 25.888 147.919 26.0391C147.966 26.1901 148.002 26.3672 148.028 26.5703H148.075C148.106 26.3672 148.143 26.1901 148.184 26.0391C148.231 25.8828 148.286 25.7135 148.348 25.5312L150.825 18.625H154.387V30H151.677V23.1016C151.677 22.9193 151.679 22.7214 151.684 22.5078C151.695 22.2891 151.71 22.0911 151.731 21.9141H151.669C151.643 22.0911 151.606 22.2891 151.559 22.5078C151.512 22.7214 151.458 22.9193 151.395 23.1016L148.942 30H146.723L144.286 23.1016C144.223 22.9193 144.169 22.7214 144.122 22.5078C144.075 22.2891 144.036 22.0911 144.005 21.9141H143.95C143.966 22.0911 143.976 22.2891 143.981 22.5078C143.986 22.7214 143.989 22.9193 143.989 23.1016V30H141.794ZM156.094 30L160.383 18.5781H163.328L167.711 30H164.773L161.953 22.1797C161.891 22.0026 161.841 21.8333 161.805 21.6719C161.768 21.5104 161.737 21.3516 161.711 21.1953H161.648C161.622 21.3516 161.591 21.513 161.555 21.6797C161.518 21.8411 161.469 22.0078 161.406 22.1797L158.609 30H156.094ZM158.727 27.6641L159.305 25.6953H164.242L164.828 27.6641H158.727ZM168.894 24.6641V23.9609C168.894 22.1224 169.37 20.737 170.323 19.8047C171.277 18.8672 172.542 18.3984 174.12 18.3984C175.558 18.3984 176.693 18.7422 177.527 19.4297C178.365 20.1172 178.777 20.9948 178.761 22.0625V22.1953H176.027V22.0938C176.027 21.6146 175.86 21.2214 175.527 20.9141C175.193 20.6016 174.685 20.4453 174.003 20.4453C173.305 20.4453 172.745 20.7005 172.323 21.2109C171.907 21.7161 171.698 22.513 171.698 23.6016V25.0312C171.698 26.151 171.93 26.9609 172.394 27.4609C172.863 27.9557 173.493 28.2031 174.284 28.2031C174.675 28.2031 175.006 28.1615 175.277 28.0781C175.553 27.9948 175.823 27.8594 176.089 27.6719V25.8672H174.128V23.8984H178.769V28.5703C178.363 28.9818 177.787 29.362 177.042 29.7109C176.297 30.0547 175.376 30.2266 174.277 30.2266C172.594 30.2266 171.277 29.7604 170.323 28.8281C169.37 27.8906 168.894 26.5026 168.894 24.6641ZM179.928 30L184.217 18.5781H187.163L191.545 30H188.608L185.788 22.1797C185.725 22.0026 185.676 21.8333 185.639 21.6719C185.603 21.5104 185.571 21.3516 185.545 21.1953H185.483C185.457 21.3516 185.426 21.513 185.389 21.6797C185.353 21.8411 185.303 22.0078 185.241 22.1797L182.444 30H179.928ZM182.561 27.6641L183.139 25.6953H188.077L188.663 27.6641H182.561ZM193.212 30V18.625H196.119L199.783 25.3125C199.866 25.474 199.936 25.6224 199.994 25.7578C200.056 25.8932 200.114 26.0443 200.166 26.2109H200.228C200.218 26.0339 200.21 25.8724 200.205 25.7266C200.205 25.5807 200.205 25.4167 200.205 25.2344V18.625H202.509V30H199.541L195.923 23.3906C195.84 23.2292 195.77 23.0755 195.712 22.9297C195.655 22.7839 195.601 22.625 195.548 22.4531H195.494C195.504 22.6354 195.509 22.8125 195.509 22.9844C195.515 23.1562 195.517 23.3333 195.517 23.5156V30H193.212ZM205.184 24.6641V23.9609C205.184 22.1224 205.661 20.737 206.614 19.8047C207.567 18.8672 208.833 18.3984 210.411 18.3984C211.848 18.3984 212.984 18.7422 213.817 19.4297C214.656 20.1172 215.067 20.9948 215.052 22.0625V22.1953H212.317V22.0938C212.317 21.6146 212.151 21.2214 211.817 20.9141C211.484 20.6016 210.976 20.4453 210.294 20.4453C209.596 20.4453 209.036 20.7005 208.614 21.2109C208.197 21.7161 207.989 22.513 207.989 23.6016V25.0312C207.989 26.151 208.221 26.9609 208.684 27.4609C209.153 27.9557 209.783 28.2031 210.575 28.2031C210.966 28.2031 211.296 28.1615 211.567 28.0781C211.843 27.9948 212.114 27.8594 212.38 27.6719V25.8672H210.419V23.8984H215.059V28.5703C214.653 28.9818 214.078 29.362 213.333 29.7109C212.588 30.0547 211.666 30.2266 210.567 30.2266C208.885 30.2266 207.567 29.7604 206.614 28.8281C205.661 27.8906 205.184 26.5026 205.184 24.6641Z" fill="white"/>
</svg>
