<svg width="141" height="32" viewBox="0 0 141 32" fill="none" xmlns="http://www.w3.org/2000/svg">
<mask id="mask0_147_138" style="mask-type:alpha" maskUnits="userSpaceOnUse" x="0" y="0" width="32" height="32">
<rect width="32" height="32" fill="#D9D9D9"/>
</mask>
<g mask="url(#mask0_147_138)">
<path d="M5.55933 28.6407C4.57489 28.6407 3.73989 28.2979 3.05433 27.6124C2.36878 26.9268 2.026 26.0918 2.026 25.1074V11.1944C2.026 10.2097 2.36878 9.37458 3.05433 8.68903C3.73989 8.00369 4.57489 7.66103 5.55933 7.66103H10.0827V4.99436C10.0827 4.00969 10.4254 3.17458 11.111 2.48903C11.7963 1.80347 12.6313 1.46069 13.616 1.46069H18.384C19.3687 1.46069 20.2037 1.80347 20.889 2.48903C21.5746 3.17458 21.9173 4.00969 21.9173 4.99436V7.66103H26.4407C27.4251 7.66103 28.2601 8.00369 28.9457 8.68903C29.6312 9.37458 29.974 10.2097 29.974 11.1944V25.1074C29.974 26.0918 29.6312 26.9268 28.9457 27.6124C28.2601 28.2979 27.4251 28.6407 26.4407 28.6407H5.55933ZM5.55933 25.1074H26.4407V11.1944H5.55933V25.1074ZM13.616 7.66103H18.384V4.99436H13.616V7.66103Z" fill="#5D5FEF"/>
</g>
<path d="M37.5469 26V8.9375H43.1719L46.6523 18.9219C46.7461 19.1953 46.8242 19.4492 46.8867 19.6836C46.9492 19.918 47.0039 20.1875 47.0508 20.4922H47.1211C47.168 20.1875 47.2227 19.918 47.2852 19.6836C47.3555 19.4492 47.4336 19.1953 47.5195 18.9219L51.0234 8.9375H56.707V26H52.4766V15.9453C52.4766 15.6719 52.4805 15.375 52.4883 15.0547C52.4961 14.7266 52.5117 14.4297 52.5352 14.1641H52.4531C52.4141 14.4375 52.3594 14.7344 52.2891 15.0547C52.2188 15.375 52.1406 15.6719 52.0547 15.9453L48.5859 26H45.0117L41.5664 15.9453C41.4805 15.6719 41.3984 15.3711 41.3203 15.043C41.25 14.7148 41.1992 14.4219 41.168 14.1641H41.0742C41.0977 14.4219 41.1133 14.7148 41.1211 15.043C41.1367 15.3711 41.1445 15.6719 41.1445 15.9453V26H37.5469ZM57.9375 26L64.1719 8.87891H68.8125L75.1289 26H70.6172L66.6328 14.5039C66.5469 14.2227 66.4766 13.9648 66.4219 13.7305C66.3672 13.4883 66.3203 13.2578 66.2812 13.0391H66.1992C66.1602 13.2578 66.1133 13.4883 66.0586 13.7305C66.0039 13.9727 65.9297 14.2305 65.8359 14.5039L61.9219 26H57.9375ZM61.7812 22.6133L62.6016 19.6016H70.125L70.9688 22.6133H61.7812ZM75.5273 17.9844V16.9531C75.5273 14.1953 76.2344 12.1172 77.6484 10.7188C79.0625 9.32031 80.9492 8.62109 83.3086 8.62109C85.4492 8.62109 87.1289 9.13281 88.3477 10.1562C89.5742 11.1797 90.1758 12.4922 90.1523 14.0938V14.375H85.9336V14.1992C85.9336 13.4805 85.7031 12.8984 85.2422 12.4531C84.7812 12.0078 84.0781 11.7852 83.1328 11.7852C82.1641 11.7852 81.3906 12.1445 80.8125 12.8633C80.2344 13.5742 79.9453 14.7031 79.9453 16.25V18.7109C79.9453 20.2812 80.2656 21.4219 80.9062 22.1328C81.5469 22.8438 82.4141 23.1992 83.5078 23.1992C84.0469 23.1992 84.5078 23.1406 84.8906 23.0234C85.2734 22.9062 85.6484 22.7148 86.0156 22.4492V19.8242H83.2852V16.8008H90.1758V23.8438C89.6055 24.4375 88.7656 25 87.6562 25.5312C86.5469 26.0547 85.1602 26.3164 83.4961 26.3164C81.0195 26.3164 79.0703 25.6172 77.6484 24.2188C76.2344 22.8203 75.5273 20.7422 75.5273 17.9844ZM90.6562 26L96.8906 8.87891H101.531L107.848 26H103.336L99.3516 14.5039C99.2656 14.2227 99.1953 13.9648 99.1406 13.7305C99.0859 13.4883 99.0391 13.2578 99 13.0391H98.918C98.8789 13.2578 98.832 13.4883 98.7773 13.7305C98.7227 13.9727 98.6484 14.2305 98.5547 14.5039L94.6406 26H90.6562ZM94.5 22.6133L95.3203 19.6016H102.844L103.688 22.6133H94.5ZM109.031 26V8.9375H113.52L118.605 18.5469C118.723 18.7891 118.824 19.0234 118.91 19.25C119.004 19.4766 119.09 19.7148 119.168 19.9648H119.25C119.242 19.6992 119.234 19.4531 119.227 19.2266C119.227 18.9922 119.227 18.7344 119.227 18.4531V8.9375H122.836V26H118.301L113.25 16.4609C113.125 16.2188 113.02 15.9844 112.934 15.7578C112.848 15.5234 112.766 15.2773 112.688 15.0195H112.605C112.621 15.293 112.633 15.5547 112.641 15.8047C112.648 16.0547 112.652 16.3164 112.652 16.5898V26H109.031ZM125.379 17.9844V16.9531C125.379 14.1953 126.086 12.1172 127.5 10.7188C128.914 9.32031 130.801 8.62109 133.16 8.62109C135.301 8.62109 136.98 9.13281 138.199 10.1562C139.426 11.1797 140.027 12.4922 140.004 14.0938V14.375H135.785V14.1992C135.785 13.4805 135.555 12.8984 135.094 12.4531C134.633 12.0078 133.93 11.7852 132.984 11.7852C132.016 11.7852 131.242 12.1445 130.664 12.8633C130.086 13.5742 129.797 14.7031 129.797 16.25V18.7109C129.797 20.2812 130.117 21.4219 130.758 22.1328C131.398 22.8438 132.266 23.1992 133.359 23.1992C133.898 23.1992 134.359 23.1406 134.742 23.0234C135.125 22.9062 135.5 22.7148 135.867 22.4492V19.8242H133.137V16.8008H140.027V23.8438C139.457 24.4375 138.617 25 137.508 25.5312C136.398 26.0547 135.012 26.3164 133.348 26.3164C130.871 26.3164 128.922 25.6172 127.5 24.2188C126.086 22.8203 125.379 20.7422 125.379 17.9844Z" fill="#5D5FEF"/>
</svg>
